<svg width="48" height="48" viewBox="0 0 48 48" fill="none" xmlns="http://www.w3.org/2000/svg">
<g clip-path="url(#clip0)">
<path d="M34.906 48C34.57 48 34.226 47.958 33.886 47.868L2.96003 39.586C0.840031 39.002 -0.42397 36.806 0.13203 34.686L4.03403 20.142C4.17803 19.608 4.72603 19.298 5.25803 19.434C5.79203 19.576 6.10803 20.126 5.96603 20.658L2.06603 35.198C1.78803 36.258 2.42403 37.362 3.48603 37.656L34.4 45.934C35.462 46.214 36.558 45.582 36.834 44.526L38.396 38.738C38.54 38.204 39.088 37.886 39.622 38.032C40.156 38.176 40.47 38.726 40.328 39.258L38.768 45.038C38.298 46.818 36.678 48 34.906 48Z" fill="#313131" fill-opacity="0.15"/>
<path d="M44 36H12C9.794 36 8 34.206 8 32V8C8 5.794 9.794 4 12 4H44C46.206 4 48 5.794 48 8V32C48 34.206 46.206 36 44 36ZM12 6C10.898 6 10 6.898 10 8V32C10 33.102 10.898 34 12 34H44C45.102 34 46 33.102 46 32V8C46 6.898 45.102 6 44 6H12Z" fill="#313131" fill-opacity="0.15"/>
<path d="M18 18C15.794 18 14 16.206 14 14C14 11.794 15.794 10 18 10C20.206 10 22 11.794 22 14C22 16.206 20.206 18 18 18ZM18 12C16.898 12 16 12.898 16 14C16 15.102 16.898 16 18 16C19.102 16 20 15.102 20 14C20 12.898 19.102 12 18 12Z" fill="#313131" fill-opacity="0.15"/>
<path d="M9.14015 33.86C8.88415 33.86 8.62815 33.762 8.43215 33.568C8.04215 33.178 8.04215 32.544 8.43215 32.154L17.8781 22.708C19.0101 21.576 20.9881 21.576 22.1201 22.708L24.9321 25.52L32.7161 16.18C33.2821 15.502 34.1141 15.108 35.0001 15.1H35.0221C35.8981 15.1 36.7281 15.48 37.3001 16.146L47.7601 28.35C48.1201 28.768 48.0721 29.4 47.6521 29.76C47.2341 30.12 46.6041 30.074 46.2421 29.652L35.7821 17.448C35.5881 17.224 35.3201 17.1 35.0221 17.1C34.8141 17.082 34.4481 17.226 34.2541 17.46L25.7681 27.642C25.5881 27.858 25.3261 27.988 25.0441 28C24.7601 28.02 24.4901 27.908 24.2921 27.708L20.7061 24.122C20.3281 23.746 19.6701 23.746 19.2921 24.122L9.84615 33.568C9.65215 33.762 9.39615 33.86 9.14015 33.86Z" fill="#313131" fill-opacity="0.15"/>
</g>
<defs>
<clipPath id="clip0">
<rect width="48" height="48" fill="white"/>
</clipPath>
</defs>
</svg>
